<?xml version="1.0" standalone="no"?>
<!DOCTYPE svg PUBLIC "-//W3C//DTD SVG 20010904//EN"
 "http://www.w3.org/TR/2001/REC-SVG-20010904/DTD/svg10.dtd">
<svg version="1.0" xmlns="http://www.w3.org/2000/svg"
 width="225.000000pt" height="225.000000pt" viewBox="0 0 225.000000 225.000000"
 preserveAspectRatio="xMidYMid meet">

<g transform="translate(0.000000,225.000000) scale(0.100000,-0.100000)"
fill="#000000" stroke="none">
<path d="M570 1899 c-92 -41 -134 -107 -134 -209 0 -103 46 -174 133 -205 50
-17 178 -20 234 -4 l37 10 0 124 0 125 -85 0 -85 0 0 -50 c0 -49 1 -50 30 -50
26 0 30 -4 30 -27 0 -46 -13 -57 -61 -50 -29 4 -52 15 -73 36 -28 29 -31 37
-31 95 0 54 4 68 24 90 34 36 92 50 156 38 27 -6 53 -7 57 -4 4 4 10 25 14 48
5 37 4 42 -17 47 -55 15 -183 7 -229 -14z"/>
<path d="M890 1914 c0 -4 27 -64 60 -133 60 -126 60 -127 60 -219 l0 -92 55 0
55 0 0 89 c0 89 0 90 64 225 l65 136 -57 0 -58 0 -33 -67 -33 -68 -34 68 -34
67 -55 0 c-30 0 -55 -3 -55 -6z"/>
<path d="M1320 1695 l0 -225 55 0 55 0 1 163 0 162 48 -160 47 -160 45 -3 45
-3 43 149 c24 82 47 155 52 163 5 8 9 -50 9 -148 l0 -163 50 0 50 0 0 225 0
225 -85 0 -84 0 -21 -72 c-34 -116 -59 -193 -60 -188 -1 3 -18 61 -39 130
l-37 125 -87 3 -87 3 0 -226z"/>
<path d="M493 1363 c-33 -3 -49 -12 -72 -39 -17 -19 -32 -46 -32 -59 -1 -14
-2 -31 -3 -37 -1 -8 -23 -15 -58 -19 -105 -11 -138 -55 -138 -184 l0 -75 -49
0 c-86 0 -138 -70 -108 -143 20 -47 52 -67 109 -67 l48 0 0 -84 c0 -70 4 -88
23 -117 29 -43 60 -59 118 -59 50 0 59 -9 59 -57 0 -15 13 -38 34 -59 33 -33
36 -34 120 -34 80 0 88 2 118 29 28 25 33 37 39 97 5 38 8 117 8 177 l1 107
413 0 414 0 6 -112 c4 -62 7 -139 7 -171 0 -54 3 -62 34 -93 33 -33 35 -34
121 -34 86 0 88 1 121 34 23 23 34 44 34 63 0 43 10 50 72 55 95 8 128 55 128
183 l0 75 49 0 c86 0 138 70 108 143 -20 47 -52 67 -109 67 l-48 0 0 78 c0
125 -46 182 -147 182 -42 0 -43 0 -49 42 -5 27 -19 54 -39 77 -32 35 -33 35
-120 35 l-87 0 -34 -37 c-31 -34 -34 -42 -34 -100 0 -35 -3 -112 -7 -170 l-6
-107 -412 0 -412 0 -6 113 c-4 61 -7 138 -7 169 0 46 -5 62 -26 87 -25 30 -80
53 -119 49 -11 -1 -39 -3 -62 -5z"/>
</g>
</svg>
