<?xml version="1.0" standalone="no"?>
<!DOCTYPE svg PUBLIC "-//W3C//DTD SVG 20010904//EN"
 "http://www.w3.org/TR/2001/REC-SVG-20010904/DTD/svg10.dtd">
<svg version="1.0" xmlns="http://www.w3.org/2000/svg"
 width="512.000000pt" height="512.000000pt" viewBox="0 0 512.000000 512.000000"
 preserveAspectRatio="xMidYMid meet">

<g transform="translate(0.000000,512.000000) scale(0.100000,-0.100000)"
fill="#000000" stroke="none">
<path d="M2230 4094 c-351 -43 -663 -124 -920 -239 -187 -84 -157 -78 -465
-85 -254 -5 -285 -8 -333 -27 -76 -31 -153 -93 -197 -158 -73 -111 -69 -58
-73 -969 -1 -484 1 -847 7 -888 24 -172 146 -313 314 -363 38 -11 105 -15 276
-15 124 0 246 -5 271 -11 24 -5 101 -35 169 -65 399 -177 847 -268 1306 -266
434 2 867 94 1265 269 63 28 133 56 155 62 23 6 136 11 271 11 204 0 240 2
297 20 149 46 266 179 297 335 8 43 10 298 8 900 l-3 840 -23 58 c-44 109
-132 195 -246 241 -46 18 -80 21 -336 26 l-285 6 -80 38 c-283 134 -551 212
-915 267 -177 27 -589 34 -760 13z m630 -157 c14 -3 52 -8 85 -12 272 -30 612
-128 890 -256 120 -55 147 -59 417 -59 289 0 326 -8 397 -85 74 -81 72 -47 69
-976 l-3 -824 -23 -51 c-28 -61 -82 -116 -137 -141 -34 -15 -82 -19 -310 -24
-299 -7 -287 -4 -473 -89 -417 -188 -956 -282 -1417 -247 -354 28 -742 124
-1026 255 -154 72 -166 74 -459 81 -250 6 -268 7 -312 29 -55 27 -103 78 -132
141 -21 46 -21 53 -21 891 l0 845 25 48 c13 27 40 62 59 79 67 59 81 62 386
68 l280 6 75 31 c41 17 131 54 199 83 259 107 535 173 896 213 49 6 500 0 535
-6z"/>
<path d="M1135 3375 c-82 -18 -129 -40 -203 -92 -177 -126 -267 -368 -232
-622 46 -338 267 -531 605 -531 56 0 128 5 160 11 96 18 223 69 301 121 l74
49 0 243 0 243 -93 5 c-51 3 -173 3 -270 0 l-177 -5 0 -98 0 -99 145 0 146 0
-3 -82 -3 -83 -87 -44 c-76 -39 -97 -45 -167 -49 -257 -15 -393 153 -379 465
10 201 82 312 234 358 57 17 153 19 206 5 63 -18 129 -70 157 -125 14 -27 27
-52 28 -54 1 -2 56 7 123 19 l121 23 -6 26 c-37 153 -176 280 -344 316 -87 18
-254 18 -336 0z"/>
<path d="M1983 3303 c24 -38 125 -197 225 -355 l182 -287 0 -256 0 -255 118 0
119 0 6 258 5 257 221 349 c122 191 221 350 221 352 0 2 -63 4 -140 4 l-139 0
-71 -120 c-38 -66 -102 -174 -141 -241 l-71 -120 -142 238 -142 238 -147 3
-147 3 43 -68z"/>
<path d="M3210 2760 l0 -610 115 0 115 0 1 468 1 467 117 -465 117 -465 122
-3 121 -3 7 28 c4 15 57 228 120 473 l113 445 0 -472 1 -473 115 0 115 0 0
610 0 610 -186 -2 -186 -3 -104 -395 c-57 -217 -107 -402 -110 -410 -7 -17
-10 -8 -124 425 -45 171 -86 327 -92 348 l-11 37 -184 0 -183 0 0 -610z"/>
</g>
</svg>
